<svg width="575" height="29" viewBox="0 0 575 29" fill="none" xmlns="http://www.w3.org/2000/svg">
<path fill-rule="evenodd" clip-rule="evenodd" d="M143.818 21.3592H92.6058C91.8226 21.3592 91.046 20.8404 90.2628 19.7994V9.63132C90.2628 8.07151 91.0362 7.28834 92.6058 7.28834H143.818C144.073 7.55592 144.455 7.68319 144.983 7.68319C145.766 8.21183 146.158 8.85794 146.158 9.63458V19.8027L143.818 21.3592ZM63.6809 11.2042H9.3487V7.2916H63.6809L66.0369 8.86121L63.6809 11.2042ZM227.454 10.4177C227.196 10.9496 226.805 11.2042 226.286 11.2042H172.352V7.2916H226.282C226.801 7.2916 227.451 7.82351 228.234 8.86121C227.97 9.38005 227.705 9.89889 227.454 10.4177ZM73.8457 6.50844C73.8457 2.60566 71.8845 0.644495 67.985 0.644495H0.750183V28.4045H9.3487V17.4597H67.985C71.8878 17.4597 73.8457 15.3778 73.8457 11.2042V6.50844ZM153.582 6.50844C153.582 2.60566 151.621 0.644495 147.721 0.644495H87.9166C84.004 0.644495 82.0526 2.60566 82.0526 6.50844V21.7541C82.0526 26.1855 84.004 28.4045 87.9166 28.4045H147.721C151.621 28.4045 153.582 26.1855 153.582 21.7541V6.50844ZM236.836 20.1943C236.836 18.6279 236.049 17.0681 234.493 15.4985C236.049 14.7252 236.836 13.2926 236.836 11.2042V6.50844C236.836 2.60566 234.744 0.644495 230.58 0.644495H164.135V28.4045H172.355V17.4597H225.503C225.757 17.711 226.276 18.1678 227.062 18.827C227.846 19.4829 228.24 20.067 228.24 20.5761V28.4012H236.839L236.836 20.1943ZM318.925 17.4597C318.925 13.2926 316.833 11.2042 312.672 11.2042H256.376C255.857 11.2042 255.07 10.4308 254.033 8.86121L255.005 7.8855C255.181 7.69886 255.394 7.54999 255.629 7.4479C255.865 7.34581 256.119 7.29263 256.376 7.2916H318.921V0.644495H252.081C248.169 0.644495 246.217 2.60566 246.217 6.50844V11.2042C246.217 15.381 248.169 17.4597 252.081 17.4597H308.362C309.925 17.4597 310.708 18.2429 310.708 19.8027C310.453 20.067 310.12 20.3966 309.732 20.7784C309.556 20.964 309.343 21.1116 309.107 21.212C308.871 21.3125 308.618 21.3637 308.362 21.3625H246.221V28.4045H312.672C316.833 28.4045 318.925 26.1855 318.925 21.7541V17.4597ZM401 21.3592H338.859L337.681 19.7994V9.63132C337.681 8.85794 338.07 8.07151 338.859 7.28834H401V0.641208H335.342C331.162 0.641208 329.083 2.6024 329.083 6.50518V21.7508C329.083 26.1822 331.162 28.4012 335.342 28.4012H401V21.3592ZM481.523 0.641208H473.708V11.2009H417.411V0.641208H409.207V28.4012H417.411V17.4564H473.708V28.4012H481.523V0.641208ZM564.385 21.3592H499.898V17.4597H564.385V11.2042H499.898V7.2916H564.385V0.644495H491.303V28.4045H564.385V21.3592ZM570.38 0.598785C568.2 0.598785 566.509 2.2924 566.509 4.46569C566.509 6.63897 568.2 8.33582 570.38 8.33582C572.566 8.33582 574.25 6.63897 574.25 4.46569C574.25 2.2924 572.566 0.598785 570.38 0.598785ZM570.38 1.15029C572.253 1.15029 573.649 2.61872 573.649 4.46895C573.649 6.32244 572.253 7.78435 570.38 7.78435C568.507 7.78435 567.116 6.32244 567.116 4.46895C567.116 2.61545 568.507 1.15029 570.38 1.15029ZM569.534 4.71694H570.458L571.714 6.6977H572.357L571.026 4.71694C571.633 4.60925 572.155 4.25684 572.155 3.46715C572.155 2.6644 571.701 2.23038 570.696 2.23038H568.983V6.6977H569.538L569.534 4.71694ZM569.534 4.24705V2.7003H570.543C571.084 2.7003 571.6 2.84714 571.6 3.47041C571.6 4.23073 570.938 4.24705 570.262 4.24705H569.534Z" fill="black"/>
</svg>
