<svg width="800" height="278" viewBox="0 0 800 278" fill="none" xmlns="http://www.w3.org/2000/svg">
<path d="M661.6 0.600004C628.533 0.600004 598.2 12.2 574.4 31.5333C549.767 11.4805 518.963 0.553092 487.2 0.600004C454.133 0.600004 423.8 12.2 400 31.5333C375.367 11.4805 344.563 0.553092 312.8 0.600004C279.733 0.600004 249.4 12.2 225.6 31.5333C205.293 15.0543 180.733 4.66604 154.765 1.57202C128.796 -1.522 102.483 2.80486 78.8726 14.0513C55.2624 25.2978 35.3218 43.0036 21.361 65.1174C7.40024 87.2312 -0.0093689 112.848 -0.0093689 139C-0.0093689 165.152 7.40024 190.769 21.361 212.883C35.3218 234.996 55.2624 252.702 78.8726 263.949C102.483 275.195 128.796 279.522 154.765 276.428C180.733 273.334 205.293 262.946 225.6 246.467C249.4 265.8 279.733 277.4 312.8 277.4C345.867 277.4 376.2 265.8 400 246.467C423.8 265.8 454.133 277.4 487.2 277.4C520.267 277.4 550.6 265.8 574.4 246.467C591.602 260.426 611.904 270.052 633.599 274.536C655.294 279.019 677.749 278.23 699.075 272.232C720.402 266.235 739.977 255.206 756.156 240.072C772.334 224.938 784.643 206.141 792.049 185.262C799.454 164.383 801.738 142.031 798.711 120.085C795.683 98.1392 787.431 77.2409 774.649 59.1467C761.867 41.0524 744.928 26.2909 725.256 16.103C705.584 5.91514 683.754 0.598503 661.6 0.600004ZM574.4 201.2C561.411 183.063 554.439 161.308 554.467 139C554.467 115.8 561.867 94.3333 574.4 76.8C586.933 94.3333 594.333 115.8 594.333 139C594.333 162.2 586.933 183.667 574.4 201.2ZM400 201.2C387.011 183.063 380.039 161.308 380.067 139C380.067 115.8 387.467 94.3333 400 76.8C412.533 94.3333 419.933 115.8 419.933 139C419.933 162.2 412.533 183.667 400 201.2ZM225.6 201.2C212.611 183.063 205.639 161.308 205.667 139C205.667 115.8 213.067 94.3333 225.6 76.8C238.133 94.3333 245.533 115.8 245.533 139C245.533 162.2 238.133 183.667 225.6 201.2ZM31.2667 139C31.2746 119.01 36.8754 99.42 47.4358 82.4466C57.9962 65.4732 73.0949 51.7931 91.0245 42.9531C108.954 34.1131 129 30.466 148.894 32.4241C168.788 34.3822 187.738 41.8674 203.6 54.0333C184.648 78.2981 174.368 108.211 174.4 139C174.4 171.033 185.333 200.533 203.6 223.967C187.738 236.133 168.788 243.618 148.894 245.576C129 247.534 108.954 243.887 91.0245 235.047C73.0949 226.207 57.9962 212.527 47.4358 195.553C36.8754 178.58 31.2746 158.99 31.2667 139ZM247.6 223.967C266.552 199.702 276.832 169.789 276.8 139C276.8 106.967 265.867 77.4667 247.6 54.0333C266.288 39.6458 289.215 31.8513 312.8 31.8667C337.333 31.8667 359.933 40.1333 378 54.0333C359.039 78.2931 348.758 108.209 348.8 139C348.8 171.033 359.733 200.533 378 223.967C359.312 238.354 336.385 246.149 312.8 246.133C289.212 246.166 266.28 238.37 247.6 223.967ZM422 223.967C440.961 199.707 451.242 169.791 451.2 139C451.2 106.967 440.267 77.4667 422 54C440.067 40.1333 462.667 31.8333 487.2 31.8333C511.733 31.8333 534.333 40.1 552.4 54C533.439 78.2598 523.158 108.176 523.2 138.967C523.2 171 534.133 200.5 552.4 223.933C533.712 238.321 510.785 246.115 487.2 246.1C463.613 246.158 440.677 238.372 422 223.967ZM661.6 246.133C638.012 246.166 615.08 238.37 596.4 223.967C615.348 199.699 625.627 169.788 625.6 139C625.6 106.967 614.667 77.4667 596.4 54.0333C609.906 43.6606 625.69 36.657 642.444 33.6033C659.197 30.5495 676.437 31.5335 692.734 36.4738C709.032 41.4141 723.916 50.1682 736.154 62.0104C748.392 73.8525 757.631 88.4415 763.104 104.567C768.577 120.693 770.128 137.892 767.626 154.737C765.125 171.582 758.644 187.587 748.721 201.427C738.797 215.267 725.718 226.541 710.567 234.316C695.416 242.091 678.629 246.142 661.6 246.133Z" fill="black"/>
</svg>
