<svg width="1140" height="63" viewBox="0 0 1140 63" fill="none" xmlns="http://www.w3.org/2000/svg">
<path d="M14.096 49.432H114.32V63H0.4V0.919998H14.096V49.432ZM222.51 49.432C223.79 49.432 224.899 48.92 225.838 47.896C226.862 46.7867 227.374 45.3787 227.374 43.672V0.919998H241.07V49.432C241.07 51.6507 240.686 53.6133 239.918 55.32C239.235 56.9413 238.297 58.3493 237.102 59.544C235.907 60.6533 234.499 61.5067 232.878 62.104C231.342 62.7013 229.763 63 228.142 63H140.078C138.371 63 136.75 62.7013 135.214 62.104C133.678 61.5067 132.313 60.6533 131.118 59.544C129.923 58.3493 128.942 56.9413 128.174 55.32C127.491 53.6133 127.15 51.6507 127.15 49.432V0.919998H140.846V43.672C140.846 45.3787 141.273 46.7867 142.126 47.896C142.979 48.92 144.046 49.432 145.326 49.432H222.51ZM366.796 0.919998L354.508 31.896L366.796 63H352.844L342.476 38.68H276.94L266.572 63H252.62L264.78 31.896L252.62 0.919998H266.572L276.812 25.112H342.476L352.844 0.919998H366.796ZM448.675 63H434.979V14.488H396.707C395 14.488 393.763 15.0427 392.995 16.152C392.312 17.176 391.971 18.5413 391.971 20.248V63H378.275V14.744C378.275 12.6107 378.616 10.6907 379.299 8.984C380.067 7.192 381.048 5.74133 382.243 4.632C383.438 3.43733 384.803 2.54133 386.339 1.944C387.875 1.26133 389.496 0.919998 391.203 0.919998H492.579C494.2 0.919998 495.779 1.26133 497.315 1.944C498.936 2.54133 500.344 3.48 501.539 4.76C502.734 5.95466 503.672 7.40533 504.355 9.112C505.123 10.8187 505.507 12.696 505.507 14.744V63H491.811V20.248C491.811 18.5413 491.384 17.176 490.531 16.152C489.763 15.0427 488.611 14.488 487.075 14.488H448.675V63ZM619.267 0.919998C620.888 0.919998 622.467 1.26133 624.003 1.944C625.624 2.54133 627.032 3.43733 628.227 4.632C629.422 5.74133 630.36 7.14933 631.043 8.856C631.811 10.5627 632.195 12.44 632.195 14.488V49.432C632.195 51.6507 631.811 53.6133 631.043 55.32C630.36 56.9413 629.422 58.3493 628.227 59.544C627.032 60.6533 625.624 61.5067 624.003 62.104C622.467 62.7013 620.888 63 619.267 63H531.203C529.496 63 527.875 62.7013 526.339 62.104C524.803 61.5067 523.438 60.6533 522.243 59.544C521.048 58.3493 520.067 56.9413 519.299 55.32C518.616 53.6133 518.275 51.6507 518.275 49.432V14.488C518.275 12.3547 518.616 10.4347 519.299 8.728C520.067 7.02133 521.048 5.61333 522.243 4.504C523.438 3.30933 524.803 2.41333 526.339 1.816C527.875 1.21866 529.496 0.919998 531.203 0.919998H619.267ZM613.635 49.432C614.915 49.432 616.024 48.92 616.963 47.896C617.987 46.7867 618.499 45.3787 618.499 43.672V20.248C618.499 18.5413 618.072 17.176 617.219 16.152C616.451 15.0427 615.299 14.488 613.763 14.488H536.707C535 14.488 533.763 15.0427 532.995 16.152C532.312 17.176 531.971 18.5413 531.971 20.248V43.672C531.971 45.3787 532.398 46.7867 533.251 47.896C534.104 48.92 535.171 49.432 536.451 49.432H613.635ZM645.025 14.488V0.919998H758.945V14.488H708.769V63H695.073V14.488H645.025ZM872.767 0.919998C874.388 0.919998 875.967 1.26133 877.503 1.944C879.124 2.54133 880.532 3.43733 881.727 4.632C882.922 5.74133 883.86 7.14933 884.543 8.856C885.311 10.5627 885.695 12.44 885.695 14.488V49.432C885.695 51.6507 885.311 53.6133 884.543 55.32C883.86 56.9413 882.922 58.3493 881.727 59.544C880.532 60.6533 879.124 61.5067 877.503 62.104C875.967 62.7013 874.388 63 872.767 63H784.703C782.996 63 781.375 62.7013 779.839 62.104C778.303 61.5067 776.938 60.6533 775.743 59.544C774.548 58.3493 773.567 56.9413 772.799 55.32C772.116 53.6133 771.775 51.6507 771.775 49.432V14.488C771.775 12.3547 772.116 10.4347 772.799 8.728C773.567 7.02133 774.548 5.61333 775.743 4.504C776.938 3.30933 778.303 2.41333 779.839 1.816C781.375 1.21866 782.996 0.919998 784.703 0.919998H872.767ZM867.135 49.432C868.415 49.432 869.524 48.92 870.463 47.896C871.487 46.7867 871.999 45.3787 871.999 43.672V20.248C871.999 18.5413 871.572 17.176 870.719 16.152C869.951 15.0427 868.799 14.488 867.263 14.488H790.207C788.5 14.488 787.263 15.0427 786.495 16.152C785.812 17.176 785.471 18.5413 785.471 20.248V43.672C785.471 45.3787 785.898 46.7867 786.751 47.896C787.604 48.92 788.671 49.432 789.951 49.432H867.135ZM999.517 0.919998C1001.14 0.919998 1002.72 1.26133 1004.25 1.944C1005.87 2.54133 1007.28 3.43733 1008.48 4.632C1009.67 5.74133 1010.61 7.14933 1011.29 8.856C1012.06 10.5627 1012.45 12.44 1012.45 14.488V25.112C1012.45 28.7813 1011.51 31.7253 1009.63 33.944C1007.84 36.1627 1005.58 37.6133 1002.85 38.296L1012.57 63H998.621L987.741 38.68H912.221V63H898.525V0.919998H999.517ZM912.221 14.488V25.112H993.885C995.165 25.112 996.274 24.856 997.213 24.344C998.237 23.7467 998.749 22.5947 998.749 20.888V19.48C998.749 17.688 998.28 16.408 997.341 15.64C996.488 14.872 995.293 14.488 993.757 14.488H912.221ZM1025.28 49.432H1120.64C1121.92 49.432 1123.02 49.048 1123.96 48.28C1124.99 47.512 1125.5 46.2747 1125.5 44.568V43.416C1125.5 41.624 1125.07 40.3867 1124.22 39.704C1123.45 39.0213 1122.3 38.68 1120.76 38.68H1038.08C1034.66 38.68 1031.68 37.528 1029.12 35.224C1026.56 32.8347 1025.28 29.464 1025.28 25.112V14.488C1025.28 10.136 1026.56 6.808 1029.12 4.504C1031.68 2.11466 1034.66 0.919998 1038.08 0.919998H1139.2V14.488H1043.71C1042.17 14.488 1040.98 14.8293 1040.12 15.512C1039.36 16.1093 1038.97 17.304 1038.97 19.096V20.248C1038.97 21.9547 1039.44 23.192 1040.38 23.96C1041.4 24.728 1042.56 25.112 1043.84 25.112H1126.4C1129.81 25.112 1132.8 26.3493 1135.36 28.824C1137.92 31.2987 1139.2 34.6267 1139.2 38.808V49.432C1139.2 53.784 1137.92 57.1547 1135.36 59.544C1132.8 61.848 1129.81 63 1126.4 63H1025.28V49.432Z" fill="black"/>
</svg>
